<mxfile host="app.diagrams.net" modified="2020-09-11T22:27:39.016Z" agent="5.0 (Windows NT 10.0; Win64; x64) AppleWebKit/537.36 (KHTML, like Gecko) Chrome/85.0.4183.102 Safari/537.36" etag="rDrZL7ET0rbyJqPMqzjU" version="13.6.9" type="github" pages="2">
  <diagram id="C5RBs43oDa-KdzZeNtuy" name="Page-1">
    <mxGraphModel dx="868" dy="1619" grid="1" gridSize="10" guides="1" tooltips="1" connect="1" arrows="1" fold="1" page="1" pageScale="1" pageWidth="827" pageHeight="1169" math="0" shadow="0">
      <root>
        <mxCell id="WIyWlLk6GJQsqaUBKTNV-0" />
        <mxCell id="WIyWlLk6GJQsqaUBKTNV-1" parent="WIyWlLk6GJQsqaUBKTNV-0" />
        <mxCell id="zkfFHV4jXpPFQw0GAbJ--16" value="" style="endArrow=block;endSize=10;endFill=0;shadow=0;strokeWidth=1;rounded=0;edgeStyle=elbowEdgeStyle;elbow=vertical;" parent="WIyWlLk6GJQsqaUBKTNV-1" source="zkfFHV4jXpPFQw0GAbJ--13" edge="1">
          <mxGeometry width="160" relative="1" as="geometry">
            <mxPoint x="210" y="373" as="sourcePoint" />
            <mxPoint x="300" y="258" as="targetPoint" />
          </mxGeometry>
        </mxCell>
        <mxCell id="zkfFHV4jXpPFQw0GAbJ--26" value="" style="endArrow=open;shadow=0;strokeWidth=1;rounded=0;endFill=1;edgeStyle=elbowEdgeStyle;elbow=vertical;" parent="WIyWlLk6GJQsqaUBKTNV-1" target="zkfFHV4jXpPFQw0GAbJ--17" edge="1">
          <mxGeometry x="0.5" y="41" relative="1" as="geometry">
            <mxPoint x="380" y="189" as="sourcePoint" />
            <mxPoint x="540" y="192" as="targetPoint" />
            <mxPoint x="-40" y="32" as="offset" />
          </mxGeometry>
        </mxCell>
        <mxCell id="zkfFHV4jXpPFQw0GAbJ--27" value="0..1" style="resizable=0;align=left;verticalAlign=bottom;labelBackgroundColor=none;fontSize=12;" parent="zkfFHV4jXpPFQw0GAbJ--26" connectable="0" vertex="1">
          <mxGeometry x="-1" relative="1" as="geometry">
            <mxPoint y="4" as="offset" />
          </mxGeometry>
        </mxCell>
        <mxCell id="zkfFHV4jXpPFQw0GAbJ--28" value="1" style="resizable=0;align=right;verticalAlign=bottom;labelBackgroundColor=none;fontSize=12;" parent="zkfFHV4jXpPFQw0GAbJ--26" connectable="0" vertex="1">
          <mxGeometry x="1" relative="1" as="geometry">
            <mxPoint x="-7" y="4" as="offset" />
          </mxGeometry>
        </mxCell>
        <mxCell id="zkfFHV4jXpPFQw0GAbJ--29" value="lives at" style="text;html=1;resizable=0;points=[];;align=center;verticalAlign=middle;labelBackgroundColor=none;rounded=0;shadow=0;strokeWidth=1;fontSize=12;" parent="zkfFHV4jXpPFQw0GAbJ--26" vertex="1" connectable="0">
          <mxGeometry x="0.5" y="49" relative="1" as="geometry">
            <mxPoint x="-38" y="40" as="offset" />
          </mxGeometry>
        </mxCell>
        <mxCell id="e015Qk3r1fqB7mPzpCo6-13" value="Comercio" style="swimlane;fontStyle=0;childLayout=stackLayout;horizontal=1;startSize=26;fillColor=none;horizontalStack=0;resizeParent=1;resizeParentMax=0;resizeLast=0;collapsible=1;marginBottom=0;" vertex="1" parent="WIyWlLk6GJQsqaUBKTNV-1">
          <mxGeometry x="220" y="100" width="140" height="130" as="geometry" />
        </mxCell>
        <mxCell id="e015Qk3r1fqB7mPzpCo6-53" value="IDComercio" style="text;strokeColor=none;fillColor=none;align=left;verticalAlign=top;spacingLeft=4;spacingRight=4;overflow=hidden;rotatable=0;points=[[0,0.5],[1,0.5]];portConstraint=eastwest;" vertex="1" parent="e015Qk3r1fqB7mPzpCo6-13">
          <mxGeometry y="26" width="140" height="26" as="geometry" />
        </mxCell>
        <mxCell id="e015Qk3r1fqB7mPzpCo6-14" value="Nombre" style="text;strokeColor=none;fillColor=none;align=left;verticalAlign=top;spacingLeft=4;spacingRight=4;overflow=hidden;rotatable=0;points=[[0,0.5],[1,0.5]];portConstraint=eastwest;" vertex="1" parent="e015Qk3r1fqB7mPzpCo6-13">
          <mxGeometry y="52" width="140" height="26" as="geometry" />
        </mxCell>
        <mxCell id="e015Qk3r1fqB7mPzpCo6-15" value="TipoComercio" style="text;strokeColor=none;fillColor=none;align=left;verticalAlign=top;spacingLeft=4;spacingRight=4;overflow=hidden;rotatable=0;points=[[0,0.5],[1,0.5]];portConstraint=eastwest;" vertex="1" parent="e015Qk3r1fqB7mPzpCo6-13">
          <mxGeometry y="78" width="140" height="26" as="geometry" />
        </mxCell>
        <mxCell id="e015Qk3r1fqB7mPzpCo6-16" value="Direccion" style="text;strokeColor=none;fillColor=none;align=left;verticalAlign=top;spacingLeft=4;spacingRight=4;overflow=hidden;rotatable=0;points=[[0,0.5],[1,0.5]];portConstraint=eastwest;" vertex="1" parent="e015Qk3r1fqB7mPzpCo6-13">
          <mxGeometry y="104" width="140" height="26" as="geometry" />
        </mxCell>
        <mxCell id="e015Qk3r1fqB7mPzpCo6-19" value="Vende 1 o +" style="html=1;verticalAlign=bottom;endArrow=block;exitX=1.014;exitY=0.269;exitDx=0;exitDy=0;exitPerimeter=0;entryX=0;entryY=0.269;entryDx=0;entryDy=0;entryPerimeter=0;" edge="1" parent="WIyWlLk6GJQsqaUBKTNV-1" source="e015Qk3r1fqB7mPzpCo6-14" target="e015Qk3r1fqB7mPzpCo6-6">
          <mxGeometry x="0.0472" width="80" relative="1" as="geometry">
            <mxPoint x="410" y="160" as="sourcePoint" />
            <mxPoint x="490" y="160" as="targetPoint" />
            <mxPoint as="offset" />
          </mxGeometry>
        </mxCell>
        <mxCell id="e015Qk3r1fqB7mPzpCo6-20" value="Cliente" style="swimlane;fontStyle=0;childLayout=stackLayout;horizontal=1;startSize=26;fillColor=none;horizontalStack=0;resizeParent=1;resizeParentMax=0;resizeLast=0;collapsible=1;marginBottom=0;" vertex="1" parent="WIyWlLk6GJQsqaUBKTNV-1">
          <mxGeometry x="400" y="-130" width="140" height="104" as="geometry" />
        </mxCell>
        <mxCell id="e015Qk3r1fqB7mPzpCo6-21" value="ID" style="text;strokeColor=none;fillColor=none;align=left;verticalAlign=top;spacingLeft=4;spacingRight=4;overflow=hidden;rotatable=0;points=[[0,0.5],[1,0.5]];portConstraint=eastwest;" vertex="1" parent="e015Qk3r1fqB7mPzpCo6-20">
          <mxGeometry y="26" width="140" height="26" as="geometry" />
        </mxCell>
        <mxCell id="e015Qk3r1fqB7mPzpCo6-58" value="IDComercio" style="text;strokeColor=none;fillColor=none;align=left;verticalAlign=top;spacingLeft=4;spacingRight=4;overflow=hidden;rotatable=0;points=[[0,0.5],[1,0.5]];portConstraint=eastwest;" vertex="1" parent="e015Qk3r1fqB7mPzpCo6-20">
          <mxGeometry y="52" width="140" height="26" as="geometry" />
        </mxCell>
        <mxCell id="e015Qk3r1fqB7mPzpCo6-22" value="FechaCarga" style="text;strokeColor=none;fillColor=none;align=left;verticalAlign=top;spacingLeft=4;spacingRight=4;overflow=hidden;rotatable=0;points=[[0,0.5],[1,0.5]];portConstraint=eastwest;" vertex="1" parent="e015Qk3r1fqB7mPzpCo6-20">
          <mxGeometry y="78" width="140" height="26" as="geometry" />
        </mxCell>
        <mxCell id="e015Qk3r1fqB7mPzpCo6-24" value="Compra" style="html=1;verticalAlign=bottom;endArrow=block;exitX=0.636;exitY=1.077;exitDx=0;exitDy=0;exitPerimeter=0;entryX=0.25;entryY=0;entryDx=0;entryDy=0;" edge="1" parent="WIyWlLk6GJQsqaUBKTNV-1" source="e015Qk3r1fqB7mPzpCo6-22" target="e015Qk3r1fqB7mPzpCo6-4">
          <mxGeometry x="0.0472" width="80" relative="1" as="geometry">
            <mxPoint x="502.05999999999995" y="-23.00999999999999" as="sourcePoint" />
            <mxPoint x="575.94" y="11.009999999999991" as="targetPoint" />
            <mxPoint as="offset" />
          </mxGeometry>
        </mxCell>
        <mxCell id="e015Qk3r1fqB7mPzpCo6-33" value="Tiene 0 o +" style="html=1;verticalAlign=bottom;endArrow=block;entryX=0.5;entryY=0.846;entryDx=0;entryDy=0;entryPerimeter=0;" edge="1" parent="WIyWlLk6GJQsqaUBKTNV-1" target="e015Qk3r1fqB7mPzpCo6-32">
          <mxGeometry x="0.0472" width="80" relative="1" as="geometry">
            <mxPoint x="280" y="96" as="sourcePoint" />
            <mxPoint x="352.97" y="231.01" as="targetPoint" />
            <mxPoint as="offset" />
          </mxGeometry>
        </mxCell>
        <mxCell id="e015Qk3r1fqB7mPzpCo6-34" value="Genera" style="html=1;verticalAlign=bottom;endArrow=block;entryX=0;entryY=0.5;entryDx=0;entryDy=0;" edge="1" parent="WIyWlLk6GJQsqaUBKTNV-1" target="e015Qk3r1fqB7mPzpCo6-27">
          <mxGeometry x="0.0472" width="80" relative="1" as="geometry">
            <mxPoint x="550" y="30" as="sourcePoint" />
            <mxPoint x="535" y="110" as="targetPoint" />
            <mxPoint as="offset" />
          </mxGeometry>
        </mxCell>
        <mxCell id="e015Qk3r1fqB7mPzpCo6-29" value="Empleado" style="swimlane;fontStyle=0;childLayout=stackLayout;horizontal=1;startSize=26;fillColor=none;horizontalStack=0;resizeParent=1;resizeParentMax=0;resizeLast=0;collapsible=1;marginBottom=0;" vertex="1" parent="WIyWlLk6GJQsqaUBKTNV-1">
          <mxGeometry x="210" y="-130" width="140" height="104" as="geometry" />
        </mxCell>
        <mxCell id="e015Qk3r1fqB7mPzpCo6-30" value="ID" style="text;strokeColor=none;fillColor=none;align=left;verticalAlign=top;spacingLeft=4;spacingRight=4;overflow=hidden;rotatable=0;points=[[0,0.5],[1,0.5]];portConstraint=eastwest;" vertex="1" parent="e015Qk3r1fqB7mPzpCo6-29">
          <mxGeometry y="26" width="140" height="26" as="geometry" />
        </mxCell>
        <mxCell id="e015Qk3r1fqB7mPzpCo6-31" value="FechaIngreso" style="text;strokeColor=none;fillColor=none;align=left;verticalAlign=top;spacingLeft=4;spacingRight=4;overflow=hidden;rotatable=0;points=[[0,0.5],[1,0.5]];portConstraint=eastwest;" vertex="1" parent="e015Qk3r1fqB7mPzpCo6-29">
          <mxGeometry y="52" width="140" height="26" as="geometry" />
        </mxCell>
        <mxCell id="e015Qk3r1fqB7mPzpCo6-32" value="Salario" style="text;strokeColor=none;fillColor=none;align=left;verticalAlign=top;spacingLeft=4;spacingRight=4;overflow=hidden;rotatable=0;points=[[0,0.5],[1,0.5]];portConstraint=eastwest;" vertex="1" parent="e015Qk3r1fqB7mPzpCo6-29">
          <mxGeometry y="78" width="140" height="26" as="geometry" />
        </mxCell>
        <mxCell id="e015Qk3r1fqB7mPzpCo6-35" value="Persona" style="swimlane;fontStyle=0;childLayout=stackLayout;horizontal=1;startSize=26;fillColor=none;horizontalStack=0;resizeParent=1;resizeParentMax=0;resizeLast=0;collapsible=1;marginBottom=0;" vertex="1" parent="WIyWlLk6GJQsqaUBKTNV-1">
          <mxGeometry x="310" y="-350" width="140" height="156" as="geometry" />
        </mxCell>
        <mxCell id="e015Qk3r1fqB7mPzpCo6-54" value="ID/DNI" style="text;strokeColor=none;fillColor=none;align=left;verticalAlign=top;spacingLeft=4;spacingRight=4;overflow=hidden;rotatable=0;points=[[0,0.5],[1,0.5]];portConstraint=eastwest;" vertex="1" parent="e015Qk3r1fqB7mPzpCo6-35">
          <mxGeometry y="26" width="140" height="26" as="geometry" />
        </mxCell>
        <mxCell id="e015Qk3r1fqB7mPzpCo6-36" value="Nombre" style="text;strokeColor=none;fillColor=none;align=left;verticalAlign=top;spacingLeft=4;spacingRight=4;overflow=hidden;rotatable=0;points=[[0,0.5],[1,0.5]];portConstraint=eastwest;" vertex="1" parent="e015Qk3r1fqB7mPzpCo6-35">
          <mxGeometry y="52" width="140" height="26" as="geometry" />
        </mxCell>
        <mxCell id="e015Qk3r1fqB7mPzpCo6-37" value="Apellido" style="text;strokeColor=none;fillColor=none;align=left;verticalAlign=top;spacingLeft=4;spacingRight=4;overflow=hidden;rotatable=0;points=[[0,0.5],[1,0.5]];portConstraint=eastwest;" vertex="1" parent="e015Qk3r1fqB7mPzpCo6-35">
          <mxGeometry y="78" width="140" height="26" as="geometry" />
        </mxCell>
        <mxCell id="e015Qk3r1fqB7mPzpCo6-38" value="FechaNac" style="text;strokeColor=none;fillColor=none;align=left;verticalAlign=top;spacingLeft=4;spacingRight=4;overflow=hidden;rotatable=0;points=[[0,0.5],[1,0.5]];portConstraint=eastwest;" vertex="1" parent="e015Qk3r1fqB7mPzpCo6-35">
          <mxGeometry y="104" width="140" height="26" as="geometry" />
        </mxCell>
        <mxCell id="e015Qk3r1fqB7mPzpCo6-39" value="Direccion" style="text;strokeColor=none;fillColor=none;align=left;verticalAlign=top;spacingLeft=4;spacingRight=4;overflow=hidden;rotatable=0;points=[[0,0.5],[1,0.5]];portConstraint=eastwest;" vertex="1" parent="e015Qk3r1fqB7mPzpCo6-35">
          <mxGeometry y="130" width="140" height="26" as="geometry" />
        </mxCell>
        <mxCell id="e015Qk3r1fqB7mPzpCo6-41" value="" style="endArrow=none;html=1;edgeStyle=orthogonalEdgeStyle;exitX=0.443;exitY=1.038;exitDx=0;exitDy=0;exitPerimeter=0;entryX=0.564;entryY=-0.029;entryDx=0;entryDy=0;entryPerimeter=0;" edge="1" parent="WIyWlLk6GJQsqaUBKTNV-1" source="e015Qk3r1fqB7mPzpCo6-39" target="e015Qk3r1fqB7mPzpCo6-29">
          <mxGeometry relative="1" as="geometry">
            <mxPoint x="320" y="-170" as="sourcePoint" />
            <mxPoint x="480" y="-170" as="targetPoint" />
          </mxGeometry>
        </mxCell>
        <mxCell id="e015Qk3r1fqB7mPzpCo6-42" value="parent" style="edgeLabel;resizable=0;html=1;align=left;verticalAlign=bottom;" connectable="0" vertex="1" parent="e015Qk3r1fqB7mPzpCo6-41">
          <mxGeometry x="-1" relative="1" as="geometry">
            <mxPoint y="29.01" as="offset" />
          </mxGeometry>
        </mxCell>
        <mxCell id="e015Qk3r1fqB7mPzpCo6-43" value="child" style="edgeLabel;resizable=0;html=1;align=right;verticalAlign=bottom;" connectable="0" vertex="1" parent="e015Qk3r1fqB7mPzpCo6-41">
          <mxGeometry x="1" relative="1" as="geometry" />
        </mxCell>
        <mxCell id="e015Qk3r1fqB7mPzpCo6-44" value="" style="endArrow=none;html=1;edgeStyle=orthogonalEdgeStyle;exitX=1.007;exitY=0.077;exitDx=0;exitDy=0;exitPerimeter=0;" edge="1" parent="WIyWlLk6GJQsqaUBKTNV-1" source="e015Qk3r1fqB7mPzpCo6-39" target="e015Qk3r1fqB7mPzpCo6-20">
          <mxGeometry relative="1" as="geometry">
            <mxPoint x="463.06" y="-170.00199999999995" as="sourcePoint" />
            <mxPoint x="380.00000000000006" y="-84.00600000000009" as="targetPoint" />
          </mxGeometry>
        </mxCell>
        <mxCell id="e015Qk3r1fqB7mPzpCo6-45" value="parent" style="edgeLabel;resizable=0;html=1;align=left;verticalAlign=bottom;" connectable="0" vertex="1" parent="e015Qk3r1fqB7mPzpCo6-44">
          <mxGeometry x="-1" relative="1" as="geometry">
            <mxPoint x="19.019999999999996" y="44" as="offset" />
          </mxGeometry>
        </mxCell>
        <mxCell id="e015Qk3r1fqB7mPzpCo6-46" value="child" style="edgeLabel;resizable=0;html=1;align=right;verticalAlign=bottom;" connectable="0" vertex="1" parent="e015Qk3r1fqB7mPzpCo6-44">
          <mxGeometry x="1" relative="1" as="geometry" />
        </mxCell>
        <mxCell id="e015Qk3r1fqB7mPzpCo6-48" value="Factura" style="swimlane;fontStyle=0;childLayout=stackLayout;horizontal=1;startSize=26;fillColor=none;horizontalStack=0;resizeParent=1;resizeParentMax=0;resizeLast=0;collapsible=1;marginBottom=0;" vertex="1" parent="WIyWlLk6GJQsqaUBKTNV-1">
          <mxGeometry x="340" y="260" width="140" height="156" as="geometry" />
        </mxCell>
        <mxCell id="e015Qk3r1fqB7mPzpCo6-49" value="IDCliente" style="text;strokeColor=none;fillColor=none;align=left;verticalAlign=top;spacingLeft=4;spacingRight=4;overflow=hidden;rotatable=0;points=[[0,0.5],[1,0.5]];portConstraint=eastwest;" vertex="1" parent="e015Qk3r1fqB7mPzpCo6-48">
          <mxGeometry y="26" width="140" height="26" as="geometry" />
        </mxCell>
        <mxCell id="e015Qk3r1fqB7mPzpCo6-50" value="IDComercio" style="text;strokeColor=none;fillColor=none;align=left;verticalAlign=top;spacingLeft=4;spacingRight=4;overflow=hidden;rotatable=0;points=[[0,0.5],[1,0.5]];portConstraint=eastwest;" vertex="1" parent="e015Qk3r1fqB7mPzpCo6-48">
          <mxGeometry y="52" width="140" height="26" as="geometry" />
        </mxCell>
        <mxCell id="e015Qk3r1fqB7mPzpCo6-55" value="IDRecibo" style="text;strokeColor=none;fillColor=none;align=left;verticalAlign=top;spacingLeft=4;spacingRight=4;overflow=hidden;rotatable=0;points=[[0,0.5],[1,0.5]];portConstraint=eastwest;" vertex="1" parent="e015Qk3r1fqB7mPzpCo6-48">
          <mxGeometry y="78" width="140" height="26" as="geometry" />
        </mxCell>
        <mxCell id="e015Qk3r1fqB7mPzpCo6-51" value="Importe" style="text;strokeColor=none;fillColor=none;align=left;verticalAlign=top;spacingLeft=4;spacingRight=4;overflow=hidden;rotatable=0;points=[[0,0.5],[1,0.5]];portConstraint=eastwest;" vertex="1" parent="e015Qk3r1fqB7mPzpCo6-48">
          <mxGeometry y="104" width="140" height="26" as="geometry" />
        </mxCell>
        <mxCell id="e015Qk3r1fqB7mPzpCo6-57" value="Fecha" style="text;strokeColor=none;fillColor=none;align=left;verticalAlign=top;spacingLeft=4;spacingRight=4;overflow=hidden;rotatable=0;points=[[0,0.5],[1,0.5]];portConstraint=eastwest;" vertex="1" parent="e015Qk3r1fqB7mPzpCo6-48">
          <mxGeometry y="130" width="140" height="26" as="geometry" />
        </mxCell>
        <mxCell id="e015Qk3r1fqB7mPzpCo6-52" value="Genera" style="html=1;verticalAlign=bottom;endArrow=block;entryX=0.607;entryY=-0.019;entryDx=0;entryDy=0;entryPerimeter=0;" edge="1" parent="WIyWlLk6GJQsqaUBKTNV-1" target="e015Qk3r1fqB7mPzpCo6-48">
          <mxGeometry x="0.0472" width="80" relative="1" as="geometry">
            <mxPoint x="425" y="160" as="sourcePoint" />
            <mxPoint x="478" y="204" as="targetPoint" />
            <mxPoint as="offset" />
          </mxGeometry>
        </mxCell>
        <mxCell id="e015Qk3r1fqB7mPzpCo6-4" value="Articulo" style="swimlane;fontStyle=0;childLayout=stackLayout;horizontal=1;startSize=26;fillColor=none;horizontalStack=0;resizeParent=1;resizeParentMax=0;resizeLast=0;collapsible=1;marginBottom=0;" vertex="1" parent="WIyWlLk6GJQsqaUBKTNV-1">
          <mxGeometry x="520" y="100" width="140" height="234" as="geometry" />
        </mxCell>
        <mxCell id="e015Qk3r1fqB7mPzpCo6-5" value="id" style="text;strokeColor=none;fillColor=none;align=left;verticalAlign=top;spacingLeft=4;spacingRight=4;overflow=hidden;rotatable=0;points=[[0,0.5],[1,0.5]];portConstraint=eastwest;" vertex="1" parent="e015Qk3r1fqB7mPzpCo6-4">
          <mxGeometry y="26" width="140" height="26" as="geometry" />
        </mxCell>
        <mxCell id="e015Qk3r1fqB7mPzpCo6-6" value="codArticulo" style="text;strokeColor=none;fillColor=none;align=left;verticalAlign=top;spacingLeft=4;spacingRight=4;overflow=hidden;rotatable=0;points=[[0,0.5],[1,0.5]];portConstraint=eastwest;" vertex="1" parent="e015Qk3r1fqB7mPzpCo6-4">
          <mxGeometry y="52" width="140" height="26" as="geometry" />
        </mxCell>
        <mxCell id="e015Qk3r1fqB7mPzpCo6-10" value="Nombre" style="text;strokeColor=none;fillColor=none;align=left;verticalAlign=top;spacingLeft=4;spacingRight=4;overflow=hidden;rotatable=0;points=[[0,0.5],[1,0.5]];portConstraint=eastwest;" vertex="1" parent="e015Qk3r1fqB7mPzpCo6-4">
          <mxGeometry y="78" width="140" height="26" as="geometry" />
        </mxCell>
        <mxCell id="e015Qk3r1fqB7mPzpCo6-9" value="Descripcion" style="text;strokeColor=none;fillColor=none;align=left;verticalAlign=top;spacingLeft=4;spacingRight=4;overflow=hidden;rotatable=0;points=[[0,0.5],[1,0.5]];portConstraint=eastwest;" vertex="1" parent="e015Qk3r1fqB7mPzpCo6-4">
          <mxGeometry y="104" width="140" height="26" as="geometry" />
        </mxCell>
        <mxCell id="e015Qk3r1fqB7mPzpCo6-8" value="Marca" style="text;strokeColor=none;fillColor=none;align=left;verticalAlign=top;spacingLeft=4;spacingRight=4;overflow=hidden;rotatable=0;points=[[0,0.5],[1,0.5]];portConstraint=eastwest;" vertex="1" parent="e015Qk3r1fqB7mPzpCo6-4">
          <mxGeometry y="130" width="140" height="26" as="geometry" />
        </mxCell>
        <mxCell id="e015Qk3r1fqB7mPzpCo6-7" value="Categoria" style="text;strokeColor=none;fillColor=none;align=left;verticalAlign=top;spacingLeft=4;spacingRight=4;overflow=hidden;rotatable=0;points=[[0,0.5],[1,0.5]];portConstraint=eastwest;" vertex="1" parent="e015Qk3r1fqB7mPzpCo6-4">
          <mxGeometry y="156" width="140" height="26" as="geometry" />
        </mxCell>
        <mxCell id="e015Qk3r1fqB7mPzpCo6-12" value="UrlImagen" style="text;strokeColor=none;fillColor=none;align=left;verticalAlign=top;spacingLeft=4;spacingRight=4;overflow=hidden;rotatable=0;points=[[0,0.5],[1,0.5]];portConstraint=eastwest;" vertex="1" parent="e015Qk3r1fqB7mPzpCo6-4">
          <mxGeometry y="182" width="140" height="26" as="geometry" />
        </mxCell>
        <mxCell id="e015Qk3r1fqB7mPzpCo6-11" value="Precio" style="text;strokeColor=none;fillColor=none;align=left;verticalAlign=top;spacingLeft=4;spacingRight=4;overflow=hidden;rotatable=0;points=[[0,0.5],[1,0.5]];portConstraint=eastwest;" vertex="1" parent="e015Qk3r1fqB7mPzpCo6-4">
          <mxGeometry y="208" width="140" height="26" as="geometry" />
        </mxCell>
        <mxCell id="e015Qk3r1fqB7mPzpCo6-25" value="Recibo" style="swimlane;fontStyle=0;childLayout=stackLayout;horizontal=1;startSize=26;fillColor=none;horizontalStack=0;resizeParent=1;resizeParentMax=0;resizeLast=0;collapsible=1;marginBottom=0;" vertex="1" parent="WIyWlLk6GJQsqaUBKTNV-1">
          <mxGeometry x="660" y="-80" width="140" height="130" as="geometry" />
        </mxCell>
        <mxCell id="e015Qk3r1fqB7mPzpCo6-56" value="ID" style="text;strokeColor=none;fillColor=none;align=left;verticalAlign=top;spacingLeft=4;spacingRight=4;overflow=hidden;rotatable=0;points=[[0,0.5],[1,0.5]];portConstraint=eastwest;" vertex="1" parent="e015Qk3r1fqB7mPzpCo6-25">
          <mxGeometry y="26" width="140" height="26" as="geometry" />
        </mxCell>
        <mxCell id="e015Qk3r1fqB7mPzpCo6-26" value="IDCliente" style="text;strokeColor=none;fillColor=none;align=left;verticalAlign=top;spacingLeft=4;spacingRight=4;overflow=hidden;rotatable=0;points=[[0,0.5],[1,0.5]];portConstraint=eastwest;" vertex="1" parent="e015Qk3r1fqB7mPzpCo6-25">
          <mxGeometry y="52" width="140" height="26" as="geometry" />
        </mxCell>
        <mxCell id="e015Qk3r1fqB7mPzpCo6-27" value="Importe" style="text;strokeColor=none;fillColor=none;align=left;verticalAlign=top;spacingLeft=4;spacingRight=4;overflow=hidden;rotatable=0;points=[[0,0.5],[1,0.5]];portConstraint=eastwest;" vertex="1" parent="e015Qk3r1fqB7mPzpCo6-25">
          <mxGeometry y="78" width="140" height="26" as="geometry" />
        </mxCell>
        <mxCell id="e015Qk3r1fqB7mPzpCo6-28" value="Fecha" style="text;strokeColor=none;fillColor=none;align=left;verticalAlign=top;spacingLeft=4;spacingRight=4;overflow=hidden;rotatable=0;points=[[0,0.5],[1,0.5]];portConstraint=eastwest;" vertex="1" parent="e015Qk3r1fqB7mPzpCo6-25">
          <mxGeometry y="104" width="140" height="26" as="geometry" />
        </mxCell>
      </root>
    </mxGraphModel>
  </diagram>
  <diagram id="EY1O41QMIVjwtu9zSub2" name="Page-2">
    <mxGraphModel dx="868" dy="450" grid="1" gridSize="10" guides="1" tooltips="1" connect="1" arrows="1" fold="1" page="1" pageScale="1" pageWidth="827" pageHeight="1169" math="0" shadow="0">
      <root>
        <mxCell id="SEXyCJRQgmCte7AJDS-B-0" />
        <mxCell id="SEXyCJRQgmCte7AJDS-B-1" parent="SEXyCJRQgmCte7AJDS-B-0" />
        <mxCell id="SEXyCJRQgmCte7AJDS-B-2" value="Administracion de Articulos" style="html=1;" vertex="1" parent="SEXyCJRQgmCte7AJDS-B-1">
          <mxGeometry x="240" y="40" width="490" height="60" as="geometry" />
        </mxCell>
        <mxCell id="SEXyCJRQgmCte7AJDS-B-6" value="Buscar Articulo" style="html=1;" vertex="1" parent="SEXyCJRQgmCte7AJDS-B-1">
          <mxGeometry x="430" y="260" width="110" height="50" as="geometry" />
        </mxCell>
        <mxCell id="SEXyCJRQgmCte7AJDS-B-8" value="Agregar Articulos" style="html=1;" vertex="1" parent="SEXyCJRQgmCte7AJDS-B-1">
          <mxGeometry x="240" y="260" width="120" height="50" as="geometry" />
        </mxCell>
        <mxCell id="SEXyCJRQgmCte7AJDS-B-9" value="Modificar Articulos" style="html=1;" vertex="1" parent="SEXyCJRQgmCte7AJDS-B-1">
          <mxGeometry x="610" y="260" width="120" height="50" as="geometry" />
        </mxCell>
        <mxCell id="SEXyCJRQgmCte7AJDS-B-10" value="Eliminar Articulos" style="html=1;" vertex="1" parent="SEXyCJRQgmCte7AJDS-B-1">
          <mxGeometry x="240" y="350" width="120" height="50" as="geometry" />
        </mxCell>
        <mxCell id="SEXyCJRQgmCte7AJDS-B-11" value="Ver Detalle de Articulo" style="html=1;" vertex="1" parent="SEXyCJRQgmCte7AJDS-B-1">
          <mxGeometry x="590" y="350" width="140" height="50" as="geometry" />
        </mxCell>
        <mxCell id="SEXyCJRQgmCte7AJDS-B-13" value="Listado De articulos" style="html=1;" vertex="1" parent="SEXyCJRQgmCte7AJDS-B-1">
          <mxGeometry x="240" y="120" width="490" height="110" as="geometry" />
        </mxCell>
      </root>
    </mxGraphModel>
  </diagram>
</mxfile>
